<?xml version="1.0" encoding="utf-8"?>
<!-- Generator: Adobe Illustrator 24.0.1, SVG Export Plug-In . SVG Version: 6.00 Build 0)  -->
<svg version="1.1" id="Layer_1" xmlns="http://www.w3.org/2000/svg" xmlns:xlink="http://www.w3.org/1999/xlink" x="0px" y="0px"
	 viewBox="0 0 1920 1280" style="enable-background:new 0 0 1920 1280;" xml:space="preserve">
<style type="text/css">
	.st0{fill:#F0E1DE;}
	.st1{fill:#A0E0E4;}
	.st2{fill:#555555;}
	.st3{fill:#6E6C6A;}
	.st4{fill:#939393;}
	.st5{fill:#AEAEAE;}
	.st6{fill:#402A06;}
	.st7{fill:#B5EECB;}
	.st8{fill:#E5A000;}
	.st9{fill:#F8C72F;}
	.st10{fill:#A36D00;}
	.st11{fill:#11412B;}
	.st12{fill:#1B3317;}
	.st13{fill:#A66552;}
	.st14{fill:#006D3C;}
	.st15{fill:#6D9E3B;}
	.st16{fill:#254720;}
	.st17{fill:#5F8A34;}
	.st18{fill:#B0CC4D;}
	.st19{fill:#35652D;}
	.st20{fill:#C6E657;}
	.st21{fill:#5B4C34;}
	.st22{fill:#284D22;}
	.st23{fill:#438039;}
	.st24{fill:#AD7154;}
	.st25{fill:#CA8865;}
	.st26{fill:#FDBFAF;}
	.st27{fill:#1D7256;}
	.st28{fill:#55A261;}
	.st29{fill:#C8D4ED;}
	.st30{fill:#B2BDD3;}
	.st31{fill:#8E97A8;}
	.st32{fill:#FFE876;}
	.st33{fill:#17593A;}
	.st34{fill:#B9DBA5;}
	.st35{fill:#DFDACD;}
	.st36{fill:#6E6D6E;}
	.st37{fill:#475250;}
	.st38{fill:#DAE3E6;}
	.st39{fill:#274A21;}
	.st40{fill:#12210F;}
	.st41{fill:#305C29;}
	.st42{fill:#23421E;}
	.st43{fill:#3C7333;}
	.st44{fill:#00B7AF;}
	.st45{fill:#FCEE96;}
	.st46{fill:#877C1C;}
	.st47{fill:#B0A124;}
	.st48{fill:#DBC82D;}
	.st49{fill:#FEE835;}
	.st50{fill:#E88264;}
	.st51{fill:#FDD5C9;}
	.st52{fill:#F582A8;}
	.st53{fill:#3C8A59;}
	.st54{fill:#7EB6D7;}
	.st55{clip-path:url(#SVGID_2_);fill:#FFFFFF;}
	.st56{opacity:0.1;fill:#4F2882;}
	.st57{fill:#4D5264;}
	.st58{fill:#B16357;}
	.st59{fill:#DC8C7D;}
	.st60{opacity:0.3;fill:#683B27;}
	.st61{fill:#8E473E;}
	.st62{opacity:0.16;fill:#FFC6BD;}
	.st63{fill:#55AE71;}
	.st64{fill:#62BD71;}
	.st65{fill:#3F5E1E;}
	.st66{fill:#98B042;}
	.st67{fill:#B09D57;}
	.st68{fill:#BDDB53;}
	.st69{clip-path:url(#SVGID_4_);}
	.st70{fill:#FFFFFF;}
	.st71{opacity:0.5;fill:#005337;}
	.st72{opacity:0.2;fill:#005337;}
	.st73{fill:#FDA0A3;}
	.st74{fill:#0F7F3E;}
	.st75{fill:#9FD8AF;}
	.st76{fill:#F7C9B6;}
	.st77{clip-path:url(#SVGID_6_);}
	.st78{fill:#7B3C14;}
	.st79{fill:#6AC279;}
	.st80{fill:#9589A9;}
	.st81{fill:#FFD8C0;}
	.st82{opacity:0.12;fill:#00D865;}
	.st83{opacity:0.5;}
	.st84{fill:#2EA068;}
	.st85{opacity:0.15;fill:#00D865;}
	.st86{opacity:0.69;}
	.st87{opacity:0.09;fill:#00D865;}
	.st88{opacity:0.31;}
	.st89{opacity:0.14;fill:#00D865;}
	.st90{opacity:0.63;}
	.st91{opacity:0.39;fill:#FFCB95;}
	.st92{fill:#EAAF7B;}
	.st93{fill:#955B42;}
	.st94{fill:#FA8E67;}
	.st95{fill:#FFAB90;}
	.st96{opacity:0.19;fill:#592012;}
	.st97{fill:#98AA3C;}
	.st98{opacity:0.3;}
	.st99{fill:#F7FFAF;}
	.st100{fill:#C4D958;}
	.st101{opacity:0.53;}
	.st102{opacity:0.56;}
	.st103{opacity:0.33;}
	.st104{fill:#206148;}
	.st105{fill:#29693F;}
	.st106{fill:#2B6A40;}
	.st107{opacity:0.27;fill:#083726;}
	.st108{fill:#0E825C;}
	.st109{fill:#7EB370;}
	.st110{fill:#7AAF71;}
	.st111{fill:#549BAD;}
	.st112{fill:#2D931F;}
	.st113{fill:#78C150;}
	.st114{opacity:0.72;}
	.st115{opacity:0.18;fill:#023B05;}
	.st116{fill:#2F5928;}
	.st117{fill:#4D9442;}
	.st118{fill:#C64F1D;}
	.st119{fill:#DE3D33;}
	.st120{fill:#AF1E1B;}
	.st121{fill:#F7837C;}
	.st122{fill:#FF7169;}
	.st123{fill:#9CC164;}
	.st124{clip-path:url(#SVGID_8_);}
	.st125{clip-path:url(#SVGID_10_);}
	.st126{fill:#004B32;}
	.st127{clip-path:url(#SVGID_12_);}
	.st128{clip-path:url(#SVGID_14_);}
	.st129{clip-path:url(#SVGID_16_);}
	.st130{fill:#137A3C;}
	.st131{clip-path:url(#SVGID_18_);}
	.st132{clip-path:url(#SVGID_20_);}
	.st133{clip-path:url(#SVGID_22_);}
	.st134{fill:#DB5720;}
	.st135{fill:#EBFBFF;}
	.st136{clip-path:url(#SVGID_24_);fill:none;stroke:#DB5720;stroke-width:8;stroke-miterlimit:10;}
	.st137{fill:#FEA959;}
	.st138{fill:#427D38;}
	.st139{fill:#0C4E31;}
	.st140{fill:#E5C661;}
	.st141{opacity:0.6;}
	.st142{fill:#6BA488;}
	.st143{fill:#0E5F3E;}
	.st144{opacity:0.4;fill:#00321A;}
	.st145{fill:#FBE27E;}
	.st146{fill:#37785C;}
	.st147{fill:#A3D9D3;}
	.st148{fill:#FCC0C5;}
	.st149{clip-path:url(#SVGID_26_);}
</style>
<g>
	<g>
		<path class="st7" d="M602.33,1083.11c-78.12-126.82-79.85-284.6-79.22-433.54c0.19-44.7,0.68-90.88,18.76-131.76
			c24.58-55.56,79.34-93.57,137.74-110.28c58.4-16.71,120.5-14.63,180.91-8.15c120.26,12.89,238.02,42.49,355.31,72
			c40.61,10.22,85.79,23.86,105.55,60.78c12.49,23.33,11.88,51.21,10.53,77.64c-5.85,114.87-17.37,239.54,45.76,335.68
			c8.44,12.86,18.46,25.92,19.24,41.29c1.37,26.84-25.15,46.06-49.6,57.24c-107.2,49.02-229.76,47.18-347.61,44.41
			c-79.06-1.85-176.18-15.86-203.46-90.09c-7.14-19.43-15.21-46.58-35.8-44.51c-14.23,1.43-21.67,17.01-27.94,29.87
			c-24.01,49.26-69.74,87.44-122.5,102.27"/>
	</g>
	<g id="zamioculcas">
		<path class="st65" d="M1145.62,591.18c0,0-16.03,66.81,17.26,83.68c6.23,3.16,13.73-0.78,14.74-7.7
			C1177.62,667.16,1195.5,623.42,1145.62,591.18z"/>
		<path class="st22" d="M1240.07,446.35c0,0-30.93,82.5,2.36,99.37c6.23,3.16,13.73-0.78,14.74-7.7
			C1257.17,538.02,1283.89,485.89,1240.07,446.35z"/>
		<path class="st65" d="M1308.48,431.44c1.03-14.42-2.59-40.07-33.88-63.51c0,0-17.09,72.39,18.16,84.64
			c1.19,0.41,2.39,0.59,3.56,0.56C1300.08,445.75,1304.17,438.52,1308.48,431.44z"/>
		<path class="st65" d="M1195.16,512.86c0,0-28.23,87.61,5.06,104.48c6.23,3.16,13.73-0.78,14.74-7.7
			C1214.97,609.64,1245.04,545.1,1195.16,512.86z"/>
		<path class="st22" d="M1113.95,642.72c0,0-31.05,76.31,5.38,102.31c6.82,4.87,16.42,1.55,18.86-6.47
			C1138.19,738.56,1167.27,689.93,1113.95,642.72z"/>
		<path class="st65" d="M1054.49,724.14c0,0-31.05,76.31,5.38,102.31c6.82,4.87,16.42,1.55,18.86-6.47
			C1078.73,819.98,1107.81,771.35,1054.49,724.14z"/>
		<path class="st66" d="M1211.93,637.58c22.55-37.78,36.26-71.54,54.29-107.37c10.05-19.96,40.52-89.09,45.05-108.58
			c1.6-6.86-4.86-8.29-7.59-1.95c-7.31,17.02-12.46,32.28-20.77,47.25c-8.67,15.6-16.55,31.58-24.45,47.58
			c-17.68,35.82-38.07,72.54-57.75,107.32c-19.23,33.98-43.41,63.82-64.44,96.65c-4.4,6.87-12.96,17.75-23.84,30.79
			c11.25,0.5,22.28-0.15,33.17-1.57c1.69-2.73,3.42-5.42,5.09-8.16C1171.27,705.72,1191.63,671.6,1211.93,637.58z"/>
		<path class="st15" d="M1112.44,749.27c-42.03,50.39-119.12,133.56-128.99,147.21c-7.39,10.21,19.07,46.1,26.43,35.81
			c11.16-15.59,24.99-28.94,36.74-44.05c12.36-15.89,24.42-32.04,36.41-48.2c22.2-29.89,43-60.69,62.57-92.35
			C1134.72,749.12,1123.68,749.77,1112.44,749.27z"/>
		<path class="st22" d="M1338.77,363.42c0,0,2.03,56.55-22.45,64.73c-7.91,2.64-15.94-3.94-15.6-12.27l0,0
			C1301.53,395.96,1311.83,372.61,1338.77,363.42z"/>
		<path class="st12" d="M1354.34,515.31c0,0-60.95,76.82-103.42,63.38c-7.95-2.52-11.05-12.14-6.13-18.88l0,0
			C1256.56,543.71,1326.84,507.94,1354.34,515.31z"/>
		<path class="st65" d="M1373.58,444.4c0,0-43.13,70.23-85.6,56.78c-7.95-2.52-11.05-12.14-6.13-18.88v0
			C1293.63,466.21,1346.09,437.03,1373.58,444.4z"/>
		<path class="st12" d="M1366.42,397.06c0,0-29.8,48.11-54.7,41.27c-8.04-2.21-11.05-12.14-6.13-18.88l0,0
			C1317.36,403.36,1338.92,389.7,1366.42,397.06z"/>
		<path class="st65" d="M1251.6,597.9c16.96-5.06,39.34-7.08,66.84,0.29c0,0-65.64,66.04-108.1,52.6
			c-7.95-2.52-11.05-12.14-6.13-18.88l0,0C1215.98,615.82,1232.49,603.61,1251.6,597.9z"/>
		<path class="st12" d="M1185.23,672.53c6.81-6.52,42.73-37.02,104.27-20.53c0,0-65.64,66.04-108.1,52.6
			c-7.95-2.52-11.05-12.14-6.13-18.88l7.97-10.89C1183.83,674.01,1184.49,673.23,1185.23,672.53z"/>
		<path class="st65" d="M1138.64,734.33c24.95-19.67,64.45-19.48,92.98-10.42c1.52,0.48,12.57,5.5,13.26,4.93
			c0,0-74.3,56.12-114.44,36.82c-4.29-2.06-7.12-6.45-6.68-11.3c0.28-3.1,1.87-5.92,3.7-8.44
			C1130.69,741.47,1134.46,737.62,1138.64,734.33z"/>
		<path class="st12" d="M1098,798.7c50.89-35.04,91.88-4.36,92.57-4.93c0,0-60.63,55.56-100.77,36.26
			c-4.29-2.06-7.12-6.45-6.68-11.3c0.28-3.1,1.87-5.93,3.7-8.44C1090.05,805.84,1093.62,801.72,1098,798.7z"/>
		<path class="st22" d="M764.42,458.4c0,0,45.44,80.46,93.68,66.56c9.03-2.6,12.8-13.36,7.45-21.09
			C865.55,503.87,843.06,444.42,764.42,458.4z"/>
		<path class="st22" d="M724.67,229.27c0,0,45.16,109.56,93.39,95.66c9.03-2.6,12.8-13.36,7.45-21.09
			C825.52,303.84,804.05,228.03,724.67,229.27z"/>
		<path class="st12" d="M778.35,151.89c-12.2-15.14-39.26-37.07-91.55-31.46c0,0,49.51,86.92,95.45,66.67
			c1.55-0.68,2.89-1.61,4.01-2.71C783.2,173.68,780.59,162.81,778.35,151.89z"/>
		<path class="st12" d="M741.41,335.89c0,0,52.5,112.11,100.73,98.21c9.03-2.6,12.8-13.36,7.45-21.09
			C849.6,413.01,820.06,321.91,741.41,335.89z"/>
		<path class="st12" d="M780.48,538.15c0,0,39.37,103.58,99.05,95.79c11.18-1.46,17.58-13.53,12.64-23.66
			C892.17,610.28,876.23,535.76,780.48,538.15z"/>
		<path class="st67" d="M939.2,841.55c-2.39-26.96-5.33-53.92-8.33-80.82c-0.92-8.26-2.01-16.49-3.04-24.72
			c-10.56,26.45-24.64,50.64-46.39,68.7c0.99,50.12,1.77,91.9,3.12,102.85c2.09,16.82,61.02,27.9,58.84,11.03
			C940.1,893,941.48,867.2,939.2,841.55z"/>
		<path class="st66" d="M927.83,736c-5.74-45.69-13.15-91.09-22.45-136.22c-10.74-52.14-21.97-104.39-33.16-156.48
			c-12.43-57.86-29.88-103.65-44.95-155.45c-8.4-28.86-41.76-124.83-55.16-148.17c-4.71-8.21-12.39-3.7-9.26,5.04
			c8.4,23.45,17.32,43.19,22.85,65.55c5.77,23.3,12.65,46.26,19.54,69.24c15.42,51.46,29,106.3,41.5,158.56
			c12.21,51.07,15.75,102.6,25.14,154.19c5.87,32.23,7.98,132.88,9.56,212.43C903.19,786.65,917.27,762.46,927.83,736z"/>
		<path class="st12" d="M865.31,235.4c-19.6,36.42-34.06,84.03-32.02,101.22c1.32,11.14,13.19,17.78,23.33,12.97
			c15.36-7.29,25.52-23.11,32.2-42.03C869.61,287.82,864.79,262.05,865.31,235.4z"/>
		<path class="st65" d="M900.35,192.43c-11.98,6.36-24.28,22.98-35.03,42.97c-0.52,26.65,4.3,52.42,23.51,72.17
			C905.67,259.85,900.35,192.43,900.35,192.43z"/>
		<path class="st65" d="M854.31,104.99c0,0,21.9,108.66-32.22,134.34c-10.13,4.81-22-1.83-23.33-12.97l0,0
			C795.59,199.73,820.49,122.94,854.31,104.99z"/>
		<path class="st12" d="M803.88,64.96c0,0,14.75,74.67-16.02,90.75c-9.94,5.2-22-1.83-23.33-12.97l0,0
			C761.36,116.11,770.06,82.91,803.88,64.96z"/>
		<path class="st65" d="M874.91,367.89c12.05-20.52,32.24-43.02,66.06-60.97c0,0-4.09,125.17-58.21,150.84
			c-10.13,4.81-22.01-1.83-23.33-12.97l0,0C856.25,418.17,861.33,391.02,874.91,367.89z"/>
		<path class="st66" d="M849.71,819.73c-12.34-19.05-25.6-37.91-41.68-56.43c-30.6-35.23-58.21-64.94-96.9-102.59
			c-30.57-29.75-93.01-90.43-100.07-88.46c-12.37,3.46,60.03,63.91,87.97,97.27c29.27,34.96,60.07,68.8,86.71,105.86
			c7.84,10.9,18.12,26.95,28.76,44.46C826.14,820.92,837.97,820.86,849.71,819.73z"/>
		<path class="st15" d="M887.29,879.75c-12.91-20.14-24.75-40.18-37.59-60.02c-11.74,1.13-23.57,1.19-35.21,0.11
			c24.35,40.08,50.59,87.83,53.67,99.12c16.13,1.3,32.41,13.32,41.81-8.42C902.43,900.63,894.72,891.32,887.29,879.75z"/>
		<path class="st65" d="M637.09,598.42c0,0-36.93-34.58-32.36-70.98c0,0,19.01,3.66,37.37,31.25
			C663.28,590.5,653.31,612.45,637.09,598.42z"/>
		<path class="st22" d="M655.16,529.21c0,0,18.83,19.79,27.42,46.17c5.65,17.34,12.93,46.5,7.51,57.84
			c-2.53,5.3-12.16,1.79-18.17,0.33c-12.56-3.04-27.39-21.78-23.69-49.58C651.93,556.16,655.16,529.21,655.16,529.21z"/>
		<path class="st65" d="M689.89,538.78c0,0,25.02,21.85,35.18,53.04c9.8,30.09,8.43,83.03-13.88,77.64
			c-14.86-3.59-32.39-25.75-28.01-58.63C687.55,577.94,689.89,538.78,689.89,538.78z"/>
		<path class="st22" d="M769.59,735.41c-1.37-1.79-42.57-44.99-26.57-89.82c16-44.82,22.54-48.77,22.54-48.77
			s40.27,94.02,23.87,131.19C780.24,748.87,769.59,735.41,769.59,735.41z"/>
		<path class="st65" d="M801.81,778.95c-9.46-16.06-6.92-40.26-5.53-57.97c3.83-48.61,26.93-76.23,27-76.31
			c-0.47,0.57,2.82,7.74,3.08,8.48c2.21,6.37,5.07,12.54,6.57,19.06c4.4,19.03,9.34,38.78,9.22,58.64
			c-0.07,11.33-1.87,27.43-2.86,38.8c-1.7,19.6-17.01,19.42-27.24,16.28C808.26,784.77,803.94,782.57,801.81,778.95z"/>
		<path class="st22" d="M841.8,841.64c-3.24-1.39-6.01-3.67-8.01-6.58c-6.14-8.91-16.23-30.05-4.31-61.99
			c16.18-43.35,25.71-64.28,25.71-64.28s49.42,103.28,3.5,131.94c-4.98,3.11-11.26,3.33-16.66,1.01L841.8,841.64z"/>
		<path class="st12" d="M877.96,502.18c0.72-12.66,8.13-75.6,83.82-115.77c0,0-4.09,125.17-58.21,150.84
			c-10.13,4.81-22-1.83-23.33-12.97l-2.14-18.02C877.94,504.9,877.88,503.54,877.96,502.18z"/>
		<path class="st65" d="M888.73,605.71c6.54-42.22,45.59-78.24,81.97-95.47c1.93-0.92,17.41-6.11,17.57-7.29
			c0,0-21.7,123.34-78.91,141.13c-6.12,1.9-12.92,0.18-16.93-5c-2.56-3.31-3.59-7.55-4.09-11.7
			C887.46,620.02,887.64,612.78,888.73,605.71z"/>
		<path class="st65" d="M907.72,706.32c17.98-81.13,108.29-114.37,108.44-115.54c0,0-30.6,136.12-87.81,153.91
			c-6.12,1.9-12.92,0.18-16.93-5c-2.56-3.31-3.59-7.55-4.09-11.7C906.44,720.63,906.17,713.3,907.72,706.32z"/>
		<path class="st22" d="M1101.59,457.3c-9.85-4.93-19.68-11.81-28-20.23c-4.26,33.95,16.54,71.59,26.53,79.94
			c10.26,8.57,23.64,25.36,23.64,25.36s26.34-37.44,25.01-83.44C1132.81,461.66,1115.9,460.16,1101.59,457.3z"/>
		<path class="st65" d="M1148.11,449.56c-5.63-50.18-75.7-67.1-75.7-67.1s7.32,17.18,1.5,51.82c-0.15,0.92-0.21,1.86-0.33,2.79
			c8.33,8.42,18.15,15.31,28,20.23c14.31,2.86,31.22,4.36,47.18,1.62C1148.68,455.83,1148.46,452.71,1148.11,449.56z"/>
		<path class="st12" d="M1001.94,444.38c0,0,77.89,5.11,93.17,57.61c15.28,52.5-8.84,103.51-8.84,103.51s-17.37-15.44-29.9-22.69
			c-12.53-7.25-43.04-45.38-43.24-83.42C1012.92,461.36,1001.94,444.38,1001.94,444.38z"/>
		<path class="st22" d="M966.7,519.87c0,0,59.71-0.86,76.07,35.17c18.45,40.63,5.82,95.78,5.82,95.78l-21.79,28.19
			c0,0,5.41-44.62-17.75-61.81c-16.11-11.96-21.32-38.53-26.28-55.89C976.48,539.22,966.7,519.87,966.7,519.87z"/>
		<path class="st12" d="M1141.2,357.2c0,0,55.87,13.49,60.36,53.5c4.49,40.01-19.42,73.99-19.42,73.99s-10.66-13.38-18.85-20.22
			c-8.18-6.83-25.53-38.34-20.89-65.96S1141.2,357.2,1141.2,357.2z"/>
		<path class="st12" d="M973.06,629.26c0,0,53.14,21.92,51.43,62.14c-1.71,40.23-30.56,70.13-30.56,70.13s-8.48-14.86-15.52-22.87
			s-19.34-41.8-10.51-68.38C976.72,643.69,973.06,629.26,973.06,629.26z"/>
		<path class="st22" d="M1191.63,375.19c0.75,18.75,7.2,36.1,11.73,41.67c6.73,8.27,14.64,23.44,14.64,23.44s29.96-28.8,33.18-68.93
			c1.15-14.31-4.8-26.51-12.88-36.34C1225.92,352.21,1210.21,366.56,1191.63,375.19z"/>
		<path class="st65" d="M1238.31,335.02c-14.57-17.75-36.17-27.69-36.17-27.69s3.11,14.56-6.7,40.79
			c-3.21,8.57-4.17,17.98-3.8,27.07C1210.21,366.56,1225.92,352.21,1238.31,335.02z"/>
		<path class="st12" d="M1329.44,246.2c0,0-1.48,55.17-18.3,91.75c-16.81,36.58-54.84,53.33-54.84,53.33s-2.22-16.97-5.7-27.05
			c-3.48-10.08-2.06-46.01,16.17-67.27C1285.01,275.71,1329.44,246.2,1329.44,246.2z"/>
		<path class="st19" d="M984.76,756.28c-21.66,51.03-36.1,108.12-34.83,163.75c0.51,22.64,45.84,24.13,45.3,1.58
			c-1.29-53.9,6.03-115.35,26.92-164.41c5.65-13.26,11.55-26.64,17.74-39.95c-9.44-10.62-15.61-24.16-18.19-38.43
			C1008,704.23,995.72,730.46,984.76,756.28z"/>
		<path class="st67" d="M1284.19,364c-80,78.36-154.49,156.64-220.41,247.18c-15.38,21.12-29.34,44.03-42.08,67.64
			c2.58,14.26,8.75,27.81,18.19,38.43c15.87-34.12,33.82-67.77,55.69-97.69c15.13-20.7,28.21-42.76,44.36-62.71
			c16.69-20.61,32.78-41.69,49.32-62.42c17.38-21.78,35.8-42.7,53.25-64.42c17.15-21.34,33.68-43.33,51.69-64
			C1321.34,334.88,1313.09,335.7,1284.19,364z"/>
		<path class="st68" d="M1117.58,873.76c9.63-9.02,21.11-14.25,33.48-16.85c6.52-8.14,13.19-16.15,19.91-24.26
			c-20.64,2.19-40.43,9.33-56.84,22.16C1115.05,861.31,1116.06,867.73,1117.58,873.76z"/>
		<path class="st20" d="M1153.31,807.51c-13.97,11.53-27.86,23.79-40.59,37.01c0.48,3.43,0.94,6.87,1.42,10.3
			c11.45-8.95,24.57-15.08,38.45-18.74C1153.99,826.33,1154.92,816.53,1153.31,807.51z"/>
		<path class="st66" d="M1152.59,836.07c6.01-1.59,12.15-2.76,18.39-3.42c7.25-8.75,14.56-17.6,21.78-26.84
			c2.15-2.74,4.27-6.01,6.31-9.64c-15.83,0.74-31.66,5.31-45.62,12.3C1154.83,817.23,1153.94,826.68,1152.59,836.07z"/>
		<path class="st68" d="M1159.95,802.04c-2.21,1.79-4.42,3.64-6.64,5.47c0.06,0.32,0.09,0.64,0.14,0.97
			c13.03-6.53,27.7-10.9,42.47-12.06c-0.39-9.12-2.63-18.11-6-26.35C1181.46,781.85,1171.32,792.85,1159.95,802.04z"/>
		<path class="st20" d="M1192.35,776.79c1.99,6.31,3.28,12.93,3.57,19.62c1.05-0.08,2.1-0.19,3.15-0.24
			c5.47-9.72,10.27-22.05,13.19-34.2C1205.12,766.25,1198.5,771.22,1192.35,776.79z"/>
		<path class="st66" d="M1212.26,761.97c1.48-6.17,2.51-12.3,2.84-18.01c0.39-6.84-4.15-13.18-7.19-5.87
			c-4.5,10.83-10.61,21.71-17.98,31.98c0.89,2.19,1.7,4.44,2.42,6.72C1198.5,771.22,1205.12,766.25,1212.26,761.97z"/>
		<path class="st18" d="M1123.9,894.1c8.5-13.11,17.65-25.31,27.17-37.2c-12.37,2.6-23.86,7.83-33.48,16.85
			c-2.33-9.2-3.48-19.31-4.86-29.24c-8.88,9.22-17.21,18.89-24.62,29.07c-2.74,3.77-5.67,8.02-8.55,12.53
			C1094.03,893,1108.9,895.06,1123.9,894.1z"/>
		<path class="st67" d="M1079.54,886.12c-7.67,12-15,25.92-17.5,38.17c-2.56,12.58,8.3,24.92,21.38,18.63
			c16.34-7.86,25.51-24.35,34.46-39.3c1.95-3.25,3.98-6.39,6.01-9.52C1108.9,895.06,1094.03,893,1079.54,886.12z"/>
		<path class="st68" d="M997.22,860.21c-3.08-12.83-9.79-23.51-18.69-32.49c-0.97-10.38-2.13-20.75-3.29-31.21
			c16.03,13.18,28.63,30.04,35.28,49.77C1006.18,851.2,1001.81,856.01,997.22,860.21z"/>
		<path class="st66" d="M1003.82,785.23c5.33,17.32,10.18,35.19,13.54,53.23c-2.28,2.6-4.56,5.22-6.85,7.82
			c-4.64-13.77-12.22-26.11-21.8-36.8C992.91,800.58,997.52,791.87,1003.82,785.23z"/>
		<path class="st20" d="M988.71,809.48c-4.15-4.63-8.63-8.99-13.47-12.97c-1.24-11.3-2.47-22.71-3.42-34.4
			c-0.29-3.48-0.26-7.37,0.03-11.52c12.81,9.33,23.52,21.85,31.33,35.37C997.21,792.5,992.76,800.89,988.71,809.48z"/>
		<path class="st66" d="M1001.29,777.01c0.86,2.71,1.69,5.48,2.53,8.22c-0.22,0.23-0.43,0.49-0.65,0.73
			c-7.29-12.63-17.13-24.34-28.83-33.43c5.34-7.4,12.16-13.68,19.5-18.71C994.43,748.32,996.85,763.08,1001.29,777.01z"/>
		<path class="st18" d="M988.12,738.1c-5.13,4.17-9.85,8.99-13.78,14.42c-0.83-0.65-1.65-1.32-2.5-1.93
			c0.77-11.13,3.55-24.06,7.8-35.82C983.25,722.27,986.05,730.06,988.12,738.1z"/>
		<path class="st20" d="M979.65,714.77c2.16-5.97,4.67-11.66,7.54-16.6c3.44-5.93,10.71-8.72,9.23-0.95
			c-2.2,11.52-3.08,23.96-2.57,36.6c-1.95,1.34-3.86,2.77-5.72,4.28C986.05,730.06,983.25,722.27,979.65,714.77z"/>
		<path class="st67" d="M980.53,884.98c-0.75,17.41-2.16,36.22,7.16,51.77c7.47,12.45,23.32,8.12,28.1-3.8
			c4.05-10.09,5.75-23.25,6.25-35.87c-15.24-5.01-29.27-12.29-41.31-22.75C980.71,877.87,980.69,881.4,980.53,884.98z"/>
		<path class="st18" d="M1021.94,876.28c-0.59-12.58-2.23-25.23-4.58-37.82c-6.62,7.54-13.14,15.34-20.15,21.74
			c-3.08-12.83-9.79-23.51-18.69-32.49c1.43,15.36,2.36,30.78,2.22,46.62c12.04,10.47,26.07,17.74,41.31,22.75
			C1022.35,889.73,1022.24,882.55,1021.94,876.28z"/>
	</g>
	<g>
		<g>
			<g>
				<path class="st45" d="M789.04,906.13l24.39,198.73c0,60.6,49.58,110.17,110.17,110.17h121.48c60.6,0,110.17-49.58,110.17-110.17
					l30.49-198.73H789.04z"/>
				<g>
					<defs>
						<path id="SVGID_3_" d="M789.04,906.13l24.39,198.73c0,60.6,49.58,110.17,110.17,110.17h121.48
							c60.6,0,110.17-49.58,110.17-110.17l30.49-198.73H789.04z"/>
					</defs>
					<clipPath id="SVGID_2_">
						<use xlink:href="#SVGID_3_"  style="overflow:visible;"/>
					</clipPath>
					<g style="clip-path:url(#SVGID_2_);">
						<path class="st70" d="M1178.3,985.1c-11.01,12.28-22.02,24.55-33.03,36.83c-11.01-12.28-22.02-24.55-33.03-36.83
							c-3.19-3.55-9.8-3.55-12.98,0c-11,12.27-22,24.55-33,36.82c-10.99-12.27-21.98-24.55-32.97-36.82
							c-3.18-3.55-9.81-3.55-12.98,0c-11,12.27-21.99,24.55-32.99,36.82c-10.99-12.27-21.99-24.55-32.98-36.82
							c-3.18-3.55-9.81-3.55-12.98,0c-10.99,12.27-21.99,24.55-32.98,36.82c-10.99-12.27-21.99-24.55-32.98-36.82
							c-3.18-3.55-9.81-3.55-12.98,0c-10.99,12.27-21.97,24.54-32.96,36.82c-10.98-12.27-21.96-24.54-32.95-36.82
							c-7.9-8.82-20.85,4.2-12.98,12.98c13.15,14.69,26.29,29.38,39.44,44.07c3.18,3.55,9.81,3.55,12.98,0
							c10.99-12.27,21.98-24.55,32.97-36.82c10.99,12.27,21.99,24.55,32.98,36.82c3.18,3.55,9.81,3.55,12.98,0
							c10.99-12.27,21.99-24.55,32.98-36.82c10.99,12.27,21.99,24.55,32.98,36.82c3.18,3.55,9.8,3.55,12.98,0
							c11-12.27,21.99-24.55,32.99-36.82c10.99,12.27,21.98,24.55,32.97,36.82c3.18,3.55,9.8,3.55,12.98,0
							c11-12.28,22-24.55,33.01-36.83c11.01,12.28,22.02,24.55,33.03,36.83c3.19,3.55,9.8,3.55,12.98,0
							c13.17-14.69,26.35-29.38,39.52-44.07C1199.16,989.31,1186.21,976.28,1178.3,985.1z"/>
						<path class="st70" d="M1178.3,1052.18c-11.01,12.28-22.02,24.55-33.03,36.83c-11.01-12.28-22.02-24.55-33.03-36.83
							c-3.19-3.55-9.8-3.55-12.98,0c-11,12.27-22,24.55-33,36.82c-10.99-12.27-21.98-24.55-32.97-36.82
							c-3.18-3.55-9.81-3.55-12.98,0c-11,12.27-21.99,24.55-32.99,36.82c-10.99-12.27-21.99-24.55-32.98-36.82
							c-3.18-3.55-9.81-3.55-12.98,0c-10.99,12.27-21.99,24.55-32.98,36.82c-10.99-12.27-21.99-24.55-32.98-36.82
							c-3.18-3.55-9.81-3.55-12.98,0c-10.99,12.27-21.97,24.54-32.96,36.82c-10.98-12.27-21.96-24.54-32.95-36.82
							c-7.9-8.82-20.85,4.2-12.98,12.98c13.15,14.69,26.29,29.38,39.44,44.07c3.18,3.55,9.81,3.55,12.98,0
							c10.99-12.27,21.98-24.55,32.97-36.82c10.99,12.27,21.99,24.55,32.98,36.82c3.18,3.55,9.81,3.55,12.98,0
							c10.99-12.27,21.99-24.55,32.98-36.82c10.99,12.27,21.99,24.55,32.98,36.82c3.18,3.55,9.8,3.55,12.98,0
							c11-12.27,21.99-24.55,32.99-36.82c10.99,12.27,21.98,24.55,32.97,36.82c3.18,3.55,9.8,3.55,12.98,0
							c11-12.28,22-24.55,33.01-36.83c11.01,12.28,22.02,24.55,33.03,36.83c3.19,3.55,9.8,3.55,12.98,0
							c13.17-14.69,26.35-29.38,39.52-44.07C1199.16,1056.39,1186.21,1043.36,1178.3,1052.18z"/>
					</g>
				</g>
			</g>
			<path class="st56" d="M1098.13,906.13l-30.49,198.73c0,60.6-49.58,110.17-110.17,110.17h87.63c60.6,0,110.17-49.58,110.17-110.17
				l30.49-198.73H1098.13z"/>
		</g>
		<rect x="773.14" y="900.03" class="st9" width="428.51" height="37.85"/>
	</g>
</g>
</svg>
